<svg width="16" height="18" viewBox="0 0 16 18" fill="none" xmlns="http://www.w3.org/2000/svg">
<path d="M3.31263 3.16641V2.41988C3.32827 1.1659 4.35487 0.0603376 5.59611 0.011243C6.71366 -0.00374768 9.28634 -0.00374768 10.4039 0.011243C11.6211 0.0595881 12.6714 1.14004 12.6874 2.41988V3.16641H16V4.66548H14.3841V15.575C14.3684 16.8297 13.3418 17.9345 12.1002 17.984C9.38566 18.0196 6.67037 17.9847 3.95507 17.9847C2.71966 17.9682 1.6323 16.8754 1.6163 15.575V4.66548H0V3.16641H3.31263V3.16641ZM12.9289 4.66548H3.07071C3.06562 8.30823 3.02633 11.9513 3.07144 15.5937C3.08926 16.0622 3.4807 16.4669 3.93688 16.4853C6.64563 16.5209 9.35474 16.5209 12.0631 16.4853C12.5262 16.4669 12.9227 16.0494 12.9289 15.5652V4.66548V4.66548ZM11.2188 3.16641C11.2137 2.85536 11.2188 2.427 11.2188 2.427C11.2188 2.427 11.1973 1.52081 10.3664 1.50994C9.27398 1.49532 6.72602 1.49532 5.63358 1.50994C5.17048 1.5283 4.77395 1.94542 4.76777 2.42962V3.16641H11.2188V3.16641Z" fill="black"/>
<path d="M5.63872 7.51587H4.54736V13.6347H5.63872V7.51587Z" fill="black"/>
<path d="M8.5457 7.51587H7.45435V13.6347H8.5457V7.51587Z" fill="black"/>
<path d="M11.4593 7.51587H10.3679V13.6347H11.4593V7.51587Z" fill="black"/>
</svg>
