<svg width="18" height="14" viewBox="0 0 18 14" fill="none" xmlns="http://www.w3.org/2000/svg">
<path d="M17.3798 0.630852C17.1831 0.430847 16.9497 0.272195 16.6927 0.163953C16.4358 0.0557117 16.1604 0 15.8823 0C15.6043 0 15.3289 0.0557117 15.072 0.163953C14.815 0.272195 14.5816 0.430847 14.3849 0.630852L6.35294 8.80014L3.61506 6.01546C3.41842 5.81546 3.18497 5.6568 2.92804 5.54856C2.67112 5.44032 2.39575 5.38461 2.11765 5.38461C1.55602 5.38461 1.01738 5.61153 0.620246 6.01546C0.423604 6.21546 0.267618 6.4529 0.161196 6.71422C0.0547744 6.97554 0 7.25561 0 7.53846C0 8.1097 0.223109 8.65754 0.620246 9.06146L4.85554 13.3692C5.05218 13.5692 5.28563 13.7278 5.54255 13.836C5.79948 13.9443 6.07485 14 6.35294 14C6.63104 14 6.90641 13.9443 7.16333 13.836C7.42026 13.7278 7.65371 13.5692 7.85035 13.3692L17.3798 3.67686C17.5764 3.47685 17.7324 3.23942 17.8388 2.9781C17.9452 2.71678 18 2.4367 18 2.15385C18 1.87101 17.9452 1.59093 17.8388 1.32961C17.7324 1.06829 17.5764 0.830855 17.3798 0.630852V0.630852Z" fill="black"/>
</svg>
